
<svg xmlns="http://www.w3.org/2000/svg" viewBox="0 0 600 400" width="600" height="400">
  <style>
    .st0{fill:#f5f7fa}.st1{fill:#dce1eb}.st2{fill:#c7cdd8}.st3{fill:#959cb3}.st4{fill:#374f68}.st5{fill:#536b86}.st6{fill:#f5f7fa;stroke:#374f68;stroke-width:1.5;stroke-linecap:round;stroke-linejoin:round;stroke-miterlimit:10}.st7{fill:#959cb3;stroke:#374f68;stroke-width:1.5;stroke-linecap:round;stroke-linejoin:round;stroke-miterlimit:10}.st8{fill:#536b86;stroke:#374f68;stroke-width:1.5;stroke-linecap:round;stroke-linejoin:round;stroke-miterlimit:10}.st9{fill:none;stroke:#374f68;stroke-width:1.5;stroke-linecap:round;stroke-linejoin:round;stroke-miterlimit:10}.st10{fill:#f5f7fa;stroke:#374f68;stroke-width:1.5;stroke-linejoin:round;stroke-miterlimit:10}.st11{fill:#c7cdd8;stroke:#374f68;stroke-width:1.5;stroke-linejoin:round;stroke-miterlimit:10}.st12{fill:#dce1eb;stroke:#374f68;stroke-width:1.5;stroke-linejoin:round;stroke-miterlimit:10}
  </style>
  <g id="User">
    <path class="st0" d="M344.3 288.7l-22.2-13c-4.4-2.6-7.4-6.8-8.6-11.6l-3.5-15.1c-.9-3.9-4.4-6.6-8.4-6.6h-3.2c-4 0-7.5 2.8-8.4 6.6l-3.5 15.1c-1.2 4.8-4.2 9.1-8.6 11.6l-22.2 13c-5.1 3-8.3 8.5-8.3 14.5v7.3h105z"/>
    <path class="st1" d="M256.6 310.5v-7.3c0-5.9 3.2-11.5 8.3-14.5l22.2-13c4.4-2.6 7.4-6.8 8.6-11.6l3.5-15.1c.9-3.9 4.4-6.6 8.4-6.6"/>
    <path class="st2" d="M248.6 208.2v-8.9c0-19.6 15.9-35.5 35.5-35.5 19.6 0 35.5 15.9 35.5 35.5v8.9h3.4v-8.9c0-21.4-17.4-38.9-38.9-38.9-21.4 0-38.9 17.4-38.9 38.9v8.9h3.4z"/>
    <path class="st2" d="M276 242.4h-27.5c-4.5 0-8.2-3.7-8.2-8.2v-26c0-4.5 3.7-8.2 8.2-8.2H276c4.5 0 8.2 3.7 8.2 8.2v26c0 4.5-3.7 8.2-8.2 8.2z"/>
    <path class="st0" d="M319.6 242.4h-27.5c-4.5 0-8.2-3.7-8.2-8.2v-26c0-4.5 3.7-8.2 8.2-8.2h27.5c4.5 0 8.2 3.7 8.2 8.2v26c0 4.5-3.7 8.2-8.2 8.2z"/>
    <path class="st0" d="M284.2 169.3c-19.6 0-35.5 15.9-35.5 35.5v8.9h16.5v-8.9c0-10.5 8.5-19 19-19s19 8.5 19 19v8.9h16.5v-8.9c-.1-19.6-16-35.5-35.5-35.5z"/>
  </g>
  <g id="Ticket">
    <path class="st4" d="M356.1 256.3h110.2c4.5 0 8.2 3.7 8.2 8.2v54.9c0 4.5-3.7 8.2-8.2 8.2H356.1c-4.5 0-8.2-3.7-8.2-8.2v-54.9c0-4.5 3.7-8.2 8.2-8.2z"/>
    <path class="st5" d="M466.3 256.3h-90.5c-4.5 0-8.2 3.7-8.2 8.2v54.9c0 4.5 3.7 8.2 8.2 8.2h90.5"/>
    <path class="st3" d="M379.3 292h63.7c1.7 0 3.1-1.4 3.1-3.1 0-1.7-1.4-3.1-3.1-3.1h-63.7c-1.7 0-3.1 1.4-3.1 3.1.1 1.7 1.4 3.1 3.1 3.1z"/>
    <path class="st0" d="M448.1 274.2h-74.1c-1.7 0-3.1-1.4-3.1-3.1s1.4-3.1 3.1-3.1h74.1c1.7 0 3.1 1.4 3.1 3.1s-1.4 3.1-3.1 3.1z"/>
    <g>
      <path class="st0" d="M382.5 312.2c-1.7 0-3.1-1.4-3.1-3.1s1.4-3.1 3.1-3.1h11.8c1.7 0 3.1 1.4 3.1 3.1s-1.4 3.1-3.1 3.1h-11.8zM417.8 312.2h-11.8c-1.7 0-3.1-1.4-3.1-3.1s1.4-3.1 3.1-3.1h11.8c1.7 0 3.1 1.4 3.1 3.1s-1.4 3.1-3.1 3.1zM428.5 312.2c-1.7 0-3.1-1.4-3.1-3.1s1.4-3.1 3.1-3.1h11.8c1.7 0 3.1 1.4 3.1 3.1s-1.4 3.1-3.1 3.1h-11.8z"/>
    </g>
  </g>
  <g id="Computer">
    <path class="st1" d="M132.5 310.5h217c2.9 0 5.3-2.4 5.3-5.3v-2.7H127.2v2.7c0 2.9 2.4 5.3 5.3 5.3z"/>
    <path class="st0" d="M173.1 302.5h-46V182c0-4.4 3.6-8 8-8h30c4.4 0 8 3.6 8 8v120.5z"/>
    <path class="st1" d="M165.1 302.5h-38V182c0-4.4 3.6-8 8-8h22c4.4 0 8 3.6 8 8v120.5z"/>
    <path class="st0" d="M344.6 302.5H181V141.3c0-4.7 3.8-8.5 8.5-8.5h146.6c4.7 0 8.5 3.8 8.5 8.5v161.2z"/>
    <path class="st1" d="M336.1 302.5H181V141.3c0-4.7 3.8-8.5 8.5-8.5h138.1c4.7 0 8.5 3.8 8.5 8.5v161.2z"/>
    <path class="st0" d="M323.8 172.5H193.2c-1.7 0-3-1.3-3-3v-17.3c0-1.7 1.3-3 3-3h130.7c1.7 0 3 1.3 3 3v17.3c0 1.6-1.4 3-3.1 3z"/>
    <path class="st1" d="M258.5 172.5h-65.4c-1.7 0-3-1.3-3-3v-17.3c0-1.7 1.3-3 3-3h65.4"/>
    <g>
      <path class="st0" d="M233.2 239.8h-33.3c-2.5 0-4.6-2.1-4.6-4.6v-33.3c0-2.5 2.1-4.6 4.6-4.6h33.3c2.5 0 4.6 2.1 4.6 4.6v33.3c0 2.5-2.1 4.6-4.6 4.6z"/>
      <path class="st1" d="M215.8 239.8h-15.9c-2.5 0-4.6-2.1-4.6-4.6v-33.3c0-2.5 2.1-4.6 4.6-4.6h15.9"/>
    </g>
    <g>
      <path class="st0" d="M315.7 239.8h-67.7c-1.3 0-2.3-1-2.3-2.3 0-1.3 1-2.3 2.3-2.3h67.7c1.3 0 2.3 1 2.3 2.3 0 1.3-1 2.3-2.3 2.3z"/>
      <path class="st0" d="M315.7 252.1h-67.7c-1.3 0-2.3-1-2.3-2.3 0-1.3 1-2.3 2.3-2.3h67.7c1.3 0 2.3 1 2.3 2.3 0 1.3-1 2.3-2.3 2.3z"/>
      <path class="st0" d="M303.4 264.4H248c-1.3 0-2.3-1-2.3-2.3 0-1.3 1-2.3 2.3-2.3h55.4c1.3 0 2.3 1 2.3 2.3 0 1.3-1 2.3-2.3 2.3z"/>
      <path class="st3" d="M315.7 227.6h-17.7c-1.3 0-2.3-1-2.3-2.3 0-1.3 1-2.3 2.3-2.3h17.7c1.3 0 2.3 1 2.3 2.3 0 1.3-1 2.3-2.3 2.3z"/>
      <path class="st3" d="M286.5 227.6h-38.5c-1.3 0-2.3-1-2.3-2.3 0-1.3 1-2.3 2.3-2.3h38.5c1.3 0 2.3 1 2.3 2.3 0 1.3-1 2.3-2.3 2.3z"/>
      <path class="st0" d="M315.7 276.7h-67.7c-1.3 0-2.3-1-2.3-2.3 0-1.3 1-2.3 2.3-2.3h67.7c1.3 0 2.3 1 2.3 2.3 0 1.3-1 2.3-2.3 2.3z"/>
      <path class="st0" d="M315.7 289h-67.7c-1.3 0-2.3-1-2.3-2.3 0-1.3 1-2.3 2.3-2.3h67.7c1.3 0 2.3 1 2.3 2.3 0 1.3-1 2.3-2.3 2.3z"/>
    </g>
    <path class="st1" d="M264 239.8h-16.1c-1.3 0-2.3-1-2.3-2.3 0-1.3 1-2.3 2.3-2.3H264M264 252.1h-16.1c-1.3 0-2.3-1-2.3-2.3 0-1.3 1-2.3 2.3-2.3H264"/>
    <path class="st1" d="M260.1 264.4H248c-1.3 0-2.3-1-2.3-2.3 0-1.3 1-2.3 2.3-2.3h12.1"/>
    <path class="st1" d="M264 276.7h-16.1c-1.3 0-2.3-1-2.3-2.3 0-1.3 1-2.3 2.3-2.3H264M264 289h-16.1c-1.3 0-2.3-1-2.3-2.3 0-1.3 1-2.3 2.3-2.3H264"/>
    <path class="st5" d="M172.2 159.6h-5.6c-1.1 0-2.1-.9-2.1-2.1 0-1.1.9-2.1 2.1-2.1h5.6c1.1 0 2.1.9 2.1 2.1 0 1.2-.9 2.1-2.1 2.1zM172.2 169.2h-5.6c-1.1 0-2.1-.9-2.1-2.1 0-1.1.9-2.1 2.1-2.1h5.6c1.1 0 2.1.9 2.1 2.1 0 1.2-.9 2.1-2.1 2.1z"/>
    <path class="st2" d="M142.3 169.2h-7.9c-1.1 0-2.1-.9-2.1-2.1 0-1.1.9-2.1 2.1-2.1h7.9c1.1 0 2.1.9 2.1 2.1 0 1.2-1 2.1-2.1 2.1z"/>
    <path class="st3" d="M148.5 271.3l6.9 6.9-6.9 6.9c-1.1 1.1-1.1 2.9 0 4s2.9 1.1 4 0l6.9-6.9 6.9 6.9c1.1 1.1 2.9 1.1 4 0s1.1-2.9 0-4l-6.9-6.9 6.9-6.9c1.1-1.1 1.1-2.9 0-4s-2.9-1.1-4 0l-6.9 6.9-6.9-6.9c-1.1-1.1-2.9-1.1-4 0s-1.1 2.9 0 4z"/>
  </g>
  <g id="Protection">
    <circle class="st6" cx="398.2" cy="145" r="27.5"/>
    <circle class="st10" cx="398.2" cy="145" r="22.1"/>
    <path class="st7" d="M398.2 133.7c-2.5 0-4.6 2-4.6 4.6 0 1.3.6 2.6 1.5 3.4-.7.6-1.2 1.3-1.5 2.2-.3.8-.4 1.7-.4 2.6v4.1c0 .7.6 1.3 1.3 1.3h7.3c.7 0 1.3-.6 1.3-1.3v-4.1c0-.9-.1-1.8-.4-2.6-.3-.8-.8-1.6-1.5-2.2.9-.8 1.5-2.1 1.5-3.4.1-2.5-1.9-4.6-4.5-4.6zm-1.3 11.4c.1-.2.1-.4.2-.6.2-.6.6-1.2 1.1-1.7.4.2.8.3 1.3.3s.9-.1 1.3-.3c.5.4.9 1 1.1 1.7.1.2.1.4.2.6h-5.2z"/>
    <path class="st8" d="M384.5 177l5.2-5.2 4.3 1.7-1.7-4.3 5.2-5.2c-1.5-3.6-3.4-7-5.7-10.2-2.3-3.3-5.1-6.3-8.2-8.9l-7.3 1.5-1.5 7.3c2.6 3.1 5.6 5.9 8.9 8.2 3.2 2.3 6.6 4.3 10.2 5.7l-9.4 9.4z"/>
    <path class="st7" d="M416.3 177l-5.2-5.2-4.3 1.7 1.7-4.3-5.2-5.2c1.5-3.6 3.4-7 5.7-10.2 2.3-3.3 5.1-6.3 8.2-8.9l7.3 1.5 1.5 7.3c-2.6 3.1-5.6 5.9-8.9 8.2-3.2 2.3-6.6 4.3-10.2 5.7l9.4 9.4z"/>
    <circle class="st7" cx="405.9" cy="172.9" r="1.8"/>
    <circle class="st7" cx="390.5" cy="172.9" r="1.8"/>
    <path class="st8" d="M398.2 160.5c-4.6 0-9.1-.9-13.3-2.6-4.2-1.7-8.1-4.2-11.4-7.2-.9-.8-1-2.2-.2-3.1.8-.9 2.2-1 3.1-.2 5.8 5.3 13.6 8.5 21.8 8.5s16-3.2 21.8-8.5c.9-.8 2.3-.7 3.1.2.8.9.7 2.3-.2 3.1-3.3 3-7.2 5.5-11.4 7.2-4.2 1.7-8.7 2.6-13.3 2.6z"/>
  </g>
</svg>
